<svg xmlns="http://www.w3.org/2000/svg" version="1.1" xmlns:xlink="http://www.w3.org/1999/xlink" xmlns:svgjs="http://svgjs.dev/svgjs" width="1000" height="1000" viewBox="0 0 1000 1000"><rect width="1000" height="1000" fill="#ffffff"></rect><g transform="matrix(0.7,0,0,0.7,150.00005140625,106.25)"><svg viewBox="0 0 320 360" data-background-color="#528265" preserveAspectRatio="xMidYMid meet" height="1125" width="1000" xmlns="http://www.w3.org/2000/svg" xmlns:xlink="http://www.w3.org/1999/xlink"><g id="tight-bounds" transform="matrix(1,0,0,1,0.000023499999997511622,0)"><svg viewBox="0 0 320 360" height="360" width="320"><g><svg></svg></g><g><svg viewBox="0 0 320 360" height="360" width="320"><g><path transform="translate(-74.99272,-51.79039) scale(4.65793,4.65793)" d="M20.6 59.9l0.8 1-0.4-1.3c-0.1-0.6-0.8 0.1-0.4 0.3M21.5 59.3c0.3 0.5 0.6 1 0.6 1.5 0 0.7 0.6 1 1.1 1.2-0.7-0.8-1.1-3-1.7-2.7M59.9 16.9c1.7 0 3.3-0.2 5.1 0.2 4.4 1.1 8.1 3.3 10.6 6.4l7 11.2c0.3 2.8 0.9 5.9 0.8 9.3 0.7 0 0.6-1 1.4-1.2-0.8 2-1.2 4.5-1.4 7.4-0.5-1.6 0-4 0.1-5.3-0.7 1.1-1.1 0.3-1.1-0.2 0.1-0.8-0.3-0.7-0.6-1-1.1-1-1.8-2.1-2.6-3.8 0.5-1.3 0.6-3.2-1-4.2-0.5-0.3-1.1-0.8-1.4-1.6-0.4-1.1-1.1-2.4-0.9-4.1 0.1-0.5-1.5 1.1-2.4 0.4-3.9-2.7-7.8-5.8-12.5-8.4-2.5 0-4.3-0.9-5.2-2-0.8-1-0.2-2.3 1-2.4 0.7 0 1.5-0.2 2.1 0.2 0.1-0.4 0.5-0.9 1-0.9M50 14.6l0.2 0.1c1 0.2 1.5 1.6 2.6 1.1 0 0.7 0.1 1.4-0.1 1.9-0.3 0.8-1.2 0.8-1.9 0.8-6.7-0.4-10.6 2.4-14.7 4.8-1.1 0.7-2.3 1.2-3.2 2.1-4.3 4-9 7.7-10.1 15.1l-0.9 8.2c-0.1 0.9-1.1 1.8-0.9 2.9l0.7 4.9c-0.7-0.7-1.1 0.2-0.9 0.6 0.1 0.3 0.5 1.3 1.1 0.4 0.8 1.5 1.6 4.4 2.7 5.7 3.4 4 7.8 7.6 11.4 11.2 0.9-0.2 1.6-0.2 1.8-0.8 0.3 0.6-0.3 1.2-0.8 1.3 1.6 1 3.4 1.9 5.8 2.1 3.1 0.2 6 0.7 8.7 1.4 1.4-0.4 2.8-0.6 4.3-0.7 0.5 0 0.8-0.8 1.4-1l0.1-1c0.6 0.9 0.5-0.3 0.1-0.9 0.7 0.6 0.9 1.1 1.2 1.5 0-0.3 0.8-1.4 0.8-0.1l0.2-1.3c0.3-0.2 0.4 1.1 0.7 0.2 0.3-0.9 0.9-0.2 1.5-0.5-0.2 0.4-0.1 1.2 0.6 0.7l0.8-0.7c0.5 1.2 1.3 0.7 1.7 0.5 4.4-2.8 8.8-6.1 13-9.4l-0.1 1.3 0.5-1.6c0.5 0.5 0.9 0.1 1.1-0.2 0.6-1 1.4-2 2.7-2.9-1.6 4.3-3.5 7.7-5.9 10.5l-1 1.2c0 0.7-0.2 1.6-1 1.7-0.4 0.1-1.2-0.2-1.8 0.4-0.3 0.4 0.7 1.2-0.1 0.6-0.7-0.5-1.4 0-2.2 0.2-0.6 0.2 0.4 0.8 0.6 1.2 0.2 0.4 0.4 0.8 0.3 1.3l-1.1-1.2c-1.3 0.7-2.1 2-3.2 3-0.5 0.4-0.3 1.1-0.3 1.7-0.7 0-1.5-0.2-1.9 0.2-0.3 0.4-0.2 1-0.2 1.6-1-0.1-1.1-1.6-2-1.3-0.9 0.2-1.9 0.3-2.7 0.8 0.6 1.2-1 0.5-0.8 0.7-1.5-0.9-2.8-1.6-4.4-1-3.4-1.1-7.6-0.6-10.7-0.2 0-0.5 0.1-1-0.1-1.1-0.2 0.5-0.8 0.3-0.7 0.3-1.9-1.3-3.8-2.1-5.8-3.2-1.8 0.2-3.5-0.7-4-1.2-1.4-1.3-3-0.6-4.3-0.9-2.8-0.7-3.8-3.6-4.1-5.6-0.2-1-1-1.4-1.3-1.3-1.3-4.2-3.3-8-4.9-11.9-0.4-1-0.3-2-0.3-3.1 0.5 0.2 1 0.1 0.9-0.6-0.5-3.3-1.7-5.8-3-8.2 0.7-3.4 0.8-7.4 2.4-10.4 1.4-2.7 4-4.1 5.8-6.4 0.6-0.8 0.6-1.9 1.2-2.6 2-2 4-4.1 6.2-5.9 1-0.8 2.2 0 3.7-0.3 0.5-1.8 2.5-3.4 4.4-2.9 0.8 0.2 2.4-1.9 2.9-2.1 0.8-0.3 0.4 0.8 0.4 1.5 1.9-1.5 4.5-2.3 6.9-3.2" fill="#000000" fill-rule="nonzero" stroke="none" stroke-width="1" stroke-linecap="butt" stroke-linejoin="miter" stroke-miterlimit="10" stroke-dasharray="" stroke-dashoffset="0" font-family="none" font-weight="none" font-size="none" text-anchor="none" style="mix-blend-mode: normal" data-fill-palette-color="tertiary"></path></g><g transform="matrix(1,0,0,1,125.8949288270367,90)"><svg viewBox="0 0 68.21014234592661 180" height="180" width="68.21014234592661"><g><svg viewBox="0 0 68.21014234592661 180" height="180" width="68.21014234592661"><g><svg viewBox="0 0 100.60140908409534 265.4774350609247" height="180" width="68.21014234592661"><g transform="matrix(1,0,0,1,0,85.47743506092468)"><svg viewBox="0 0 100.60140908409534 180" height="180" width="100.60140908409534"><g id="textblocktransform"><svg viewBox="0 0 100.60140908409534 180" height="180" width="100.60140908409534" id="textblock"><g><svg viewBox="0 0 100.60140908409534 180" height="180" width="100.60140908409534"><g transform="matrix(1,0,0,1,0,0)"><svg width="100.60140908409534" viewBox="2.174444022232 -42.6 26.625555977768002 47.65" height="180" data-palette-color="#ffffff"><path d="M15.9 0.5L15.9 0.5Q12.85 0.5 10.1-0.35 7.35-1.2 5.35-2.85 3.35-4.5 2.4-6.75L2.4-6.75Q1.95-7.7 2.38-8.53 2.8-9.35 3.9-9.55L3.9-9.55Q4.7-9.75 5.43-9.33 6.15-8.9 6.55-8.1L6.55-8.1Q7.45-6.15 10.03-4.95 12.6-3.75 15.9-3.75L15.9-3.75Q18.15-3.75 20.03-4.53 21.9-5.3 23.05-6.78 24.2-8.25 24.2-10.35L24.2-10.35Q24.2-13.15 22.2-15.23 20.2-17.3 15.8-17.85L15.8-17.85Q12.1-18.25 9.35-19.73 6.6-21.2 5.1-23.5 3.6-25.8 3.6-28.75L3.6-28.75Q3.6-31.9 5.33-34.13 7.05-36.35 9.93-37.55 12.8-38.75 16.35-38.75L16.35-38.75Q19.3-38.75 21.48-37.93 23.65-37.1 25.25-35.63 26.85-34.15 27.9-32.25L27.9-32.25Q28.5-31.25 28.4-30.4 28.3-29.55 27.5-29.05L27.5-29.05Q26.7-28.55 25.8-28.85 24.9-29.15 24.4-30L24.4-30Q23.35-31.95 21.45-33.25 19.55-34.55 16.3-34.6L16.3-34.6Q12.75-34.65 10.45-33.15 8.15-31.65 8.15-28.65L8.15-28.65Q8.15-27.1 8.85-25.7 9.55-24.3 11.43-23.2 13.3-22.1 16.85-21.7L16.85-21.7Q22.4-21.05 25.6-18.18 28.8-15.3 28.8-10.5L28.8-10.5Q28.8-7.8 27.75-5.73 26.7-3.65 24.88-2.27 23.05-0.9 20.73-0.2 18.4 0.5 15.9 0.5ZM16.25 5.05L16.25 5.05Q15.6 5.05 15.18 4.63 14.75 4.2 14.75 3.55L14.75 3.55 14.75-41.1Q14.75-41.8 15.18-42.2 15.6-42.6 16.25-42.6L16.25-42.6Q16.85-42.6 17.28-42.2 17.7-41.8 17.7-41.1L17.7-41.1 17.7 3.55Q17.7 4.2 17.28 4.63 16.85 5.05 16.25 5.05Z" opacity="1" transform="matrix(1,0,0,1,0,0)" fill="#000000" class="undefined-text-0" data-fill-palette-color="primary" id="text-0"></path></svg></g></svg></g></svg></g></svg></g><g transform="matrix(1,0,0,1,19.214869135062212,0)"><svg viewBox="0 0 62.17167081397091 59.21111506092468" height="59.21111506092468" width="62.17167081397091"><g><svg xmlns="http://www.w3.org/2000/svg" xmlns:xlink="http://www.w3.org/1999/xlink" version="1.1" x="0" y="0" viewBox="1 2 21 20" enable-background="new 0 0 24 24" xml:space="preserve" height="59.21111506092468" width="62.17167081397091" class="icon-icon-0" data-fill-palette-color="accent" id="icon-0"><path d="M21.5 15H17v-4h0.5c0.275 0 0.5-0.225 0.5-0.5S17.775 10 17.5 10h-1.551C15.717 7.919 14.078 6.281 12 6.047V4h3V2h-3-1v2 2.047C8.922 6.281 7.284 7.919 7.05 10H5.5C5.225 10 5 10.225 5 10.5S5.225 11 5.5 11H6v4H1.5C1.225 15 1 15.225 1 15.5S1.225 16 1.5 16H2v6h3v-4c0-0.276 0.224-0.5 0.5-0.5S6 17.724 6 18v4h3v-4c0-0.276 0.224-0.5 0.5-0.5S10 17.724 10 18v4h3v-4c0-0.276 0.224-0.5 0.5-0.5S14 17.724 14 18v4h3v-4c0-0.276 0.224-0.5 0.5-0.5S18 17.724 18 18v4h3v-6h0.5c0.275 0 0.5-0.225 0.5-0.5S21.775 15 21.5 15zM7 15l4.5-3 4.5 3H7z" fill="#000000" data-fill-palette-color="accent"></path></svg></g></svg></g><g></g></svg></g></svg></g></svg></g></svg></g><defs></defs></svg><rect width="320" height="360" fill="none" stroke="none" visibility="hidden"></rect></g></svg></g></svg>